<svg width="392" height="174" viewBox="0 0 392 174" fill="none" xmlns="http://www.w3.org/2000/svg">
<path d="M202.565 41.9334L192.807 67.4046L200.686 67.4175L203.914 58.6742L206.349 67.2239L214.912 67.4201L210.5 55.9567C210.5 55.9567 216.785 54.5116 217.856 50.4547C217.856 50.4547 222.312 39.4327 202.568 41.9359M211.918 49.7786C210.538 52.5038 205.437 52.2612 205.437 52.2612L207.949 46.0211C214.602 45.3734 211.918 49.7786 211.918 49.7786Z" fill="white"/>
<path d="M0 26.581L19.7605 75.7686L30.3323 69.593L26.448 51.6057L40.0138 45.1154L43.5908 62.0884L49.2979 59.0484L46.3013 10.9524L35.1148 14.8595L38.4797 36.643L24.6463 43.3424L18.9577 18.7563L0 26.581Z" fill="#0075FF"/>
<path d="M7.80859 90.7339L20.2271 84.5352L25.3514 102.675L38.6841 95.8721L40.5997 104.933L16.9761 117.81L7.80859 90.7339Z" fill="white"/>
<path d="M52.1572 7.29041L54.3961 21.4222L64.34 18.5628L64.7824 4.49554L52.1572 7.29041Z" fill="#0075FF"/>
<path d="M54.7485 24.3305L58.6222 55.7373L64.8566 53.7786L64.446 21.6131L54.7485 24.3305Z" fill="#0075FF"/>
<path d="M38.1699 70.9504L45.284 110.11L52.4644 106.773L50.3156 89.8874L56.7196 86.9119L59.0273 105.036L65.5718 101.888L62.4109 60.5864L53.0261 64.2355L55.3948 80.3079L49.269 82.9351L47.0778 66.9994L38.1699 70.9504Z" fill="white"/>
<path d="M71.6126 3.63359L71.1992 16.666L81.0265 14.8569L79.8978 49.2805L88.236 47.5747L91.0048 12.8337L99.955 11.3163L100.885 0L71.6126 3.63359Z" fill="#0075FF"/>
<path d="M162.215 28.5422C156.452 28.3435 151.614 32.7306 151.407 38.3436C151.203 43.9566 155.707 48.6689 161.47 48.8702C167.233 49.0689 172.071 44.6817 172.278 39.0688C172.482 33.4558 167.978 28.7435 162.215 28.5422ZM161.709 42.3953C159.618 42.323 157.983 40.612 158.058 38.5759C158.132 36.5397 159.888 34.9474 161.979 35.0197C164.069 35.0919 165.704 36.8029 165.63 38.8391C165.556 40.8752 163.799 42.4675 161.709 42.3953Z" fill="white"/>
<path d="M105.697 21.2879C99.1178 21.0608 93.5961 26.0699 93.3603 32.4777C93.1271 38.8856 98.2699 44.2637 104.849 44.4934C111.428 44.7205 116.949 39.7114 117.185 33.3036C117.418 26.8957 112.276 21.5176 105.697 21.2879ZM105.119 37.0997C102.732 37.0172 100.864 35.0636 100.951 32.7384C101.036 30.4132 103.039 28.5964 105.426 28.679C107.814 28.7616 109.679 30.7126 109.594 33.0378C109.509 35.3629 107.504 37.1797 105.119 37.0972" fill="white"/>
<path d="M131.533 46.2585C125.323 46.2585 120.288 51.1618 120.288 57.2109C120.288 63.26 125.323 68.1633 131.533 68.1633C137.744 68.1633 142.778 63.26 142.778 57.2109C142.778 51.1618 137.744 46.2585 131.533 46.2585ZM131.533 61.1877C129.278 61.1877 127.453 59.4071 127.453 57.2135C127.453 55.0199 129.281 53.2393 131.533 53.2393C133.785 53.2393 135.614 55.0199 135.614 57.2135C135.614 59.4071 133.785 61.1877 131.533 61.1877Z" fill="white"/>
<path d="M222.164 86.4319C217.053 86.4319 212.909 90.4681 212.909 95.4462C212.909 100.424 217.053 104.46 222.164 104.46C227.275 104.46 231.419 100.424 231.419 95.4462C231.419 90.4681 227.275 86.4319 222.164 86.4319ZM222.164 98.7159C220.309 98.7159 218.807 97.2526 218.807 95.4462C218.807 93.6397 220.309 92.1765 222.164 92.1765C224.019 92.1765 225.521 93.6397 225.521 95.4462C225.521 97.2526 224.019 98.7159 222.164 98.7159Z" fill="white"/>
<path d="M231.053 45.3269C224.874 45.1127 219.689 49.8172 219.469 55.8354C219.249 61.8535 224.079 66.9039 230.258 67.1181C236.437 67.3323 241.622 62.6277 241.842 56.6096C242.062 50.5914 237.232 45.5411 231.053 45.3269ZM230.51 60.1761C228.268 60.0986 226.514 58.2664 226.596 56.0805C226.676 53.8973 228.557 52.1889 230.801 52.2689C233.043 52.3463 234.797 54.1786 234.717 56.3644C234.638 58.5477 232.754 60.2561 230.512 60.1761" fill="white"/>
<path d="M83.1223 55.5696C74.4026 55.6599 67.4236 64.0238 67.5323 74.2511C67.6435 84.4783 74.8027 92.6951 83.5224 92.6048C92.2422 92.5145 99.2211 84.1505 99.1099 73.9233C98.9986 63.6961 91.8394 55.4792 83.1197 55.567M83.3926 80.8034C80.229 80.8369 77.6298 77.8537 77.59 74.1427C77.5503 70.4317 80.0833 67.3968 83.2469 67.3632C86.4105 67.3297 89.0097 70.3129 89.0494 74.024C89.0892 77.735 86.5562 80.7698 83.3926 80.8034Z" fill="#0075FF"/>
<path d="M76.7505 99.3612L77.6672 109.354L90.5707 107.568L77.9746 125.359L90.3666 123.903L77.2751 145.782L112.17 141.426L115.734 131.403L97.2423 133.372L108.829 113.119L98.2995 114.394L112.363 94.6437L76.7505 99.3612Z" fill="#0075FF"/>
<path d="M120.177 81.8099L119.92 87.09L126.708 87.0539L118.457 95.4565L125.412 95.5623L117.061 106.073L135.385 106.221L137.956 101.237L128.271 100.982L135.725 91.2165L130.198 91.152L138.896 81.8203L120.177 81.8099Z" fill="white"/>
<path d="M101.998 49.9541L103.434 89.921L112.061 88.881L111.084 48.5605L101.998 49.9541Z" fill="#0075FF"/>
<path d="M117.98 71.0924H142.595L140.896 77.6499H117.813L117.98 71.0924Z" fill="white"/>
<path d="M121.178 15.3318L120.479 42.7076L128.467 43.4818L129.66 31.8249L134.246 38.7101L141.238 32.421L138.62 44.465L146.853 45.1128L152.554 17.6054L135.33 28.6326L121.178 15.3318Z" fill="white"/>
<path d="M69.8192 44.2895L75.6668 42.8263L75.1078 50.909L70.9373 52.0445L69.8192 44.2895Z" fill="white"/>
<path d="M148.593 56.4032L146.847 62.8239H154.653L146.675 81.1519H155L164.713 56.4032H148.593Z" fill="white"/>
<path d="M170.209 54.8109L156.826 88.2281H164.793L178.494 54.8109H170.209Z" fill="white"/>
<path d="M239.85 77.8435L230.277 77.8332L233.08 70.9969H226.891L224.156 77.8254L215.725 77.8177L213.433 83.4048L221.944 83.3455L228.032 83.3042L237.69 83.2397L239.85 77.8435Z" fill="white"/>
<path d="M187.778 77.0511H174.591L165.668 98.5611H178.889L181.533 92.0397H175.283L178.884 84.1248H184.893L187.778 77.0511Z" fill="white"/>
<path d="M193.867 76.2357L183.769 101.131H190.971L194.895 90.7339L198.676 90.8965L194.897 101.131H201.789L211.436 76.2357H203.964L200.117 86.5274H196.511L200.358 76.2357H193.867Z" fill="white"/>
<path d="M245.798 73.6215L235.401 99.263H242.818L246.858 88.5532L250.753 88.721L246.861 99.263H253.959L263.895 73.6215H256.198L252.237 84.2203H248.522L252.483 73.6215H245.798Z" fill="white"/>
<path d="M244.007 51.5026L251.839 68.7673L258.453 61.7194L262.702 67.7814L274.167 54.3078L269.053 50.3542L263.243 58.3517L259.303 53.8794L255.066 58.2794L251.081 50.1296L244.007 51.5026Z" fill="white"/>
<path d="M279.816 49.6212L267.461 87.8642H274.875L292.174 49.6212H279.816Z" fill="white"/>
<path d="M265.866 91.7765H272.932L269.398 99.4927H262.718L265.866 91.7765Z" fill="white"/>
<path d="M182.698 21.8428L171.496 51.0767L180.542 51.0922L184.246 41.0559L187.038 50.8677L196.866 51.0948L191.802 37.9385C191.802 37.9385 199.017 36.2791 200.244 31.6236C200.244 31.6236 205.357 18.9731 182.696 21.8454M193.426 30.8468C191.842 33.9746 185.989 33.6959 185.989 33.6959L188.872 26.5319C196.508 25.7887 193.426 30.8468 193.426 30.8468Z" fill="white"/>
<g clip-path="url(#clip0_315_14)">
<path d="M218.892 130.079H217.535V124.371H213.617V151.734H217.535V133.215H218.892V151.734H222.81V124.371H218.892V130.079Z" fill="#595857"/>
<path d="M204.179 139.263V127.507H211.95V124.371H200.26V142.399H211.95V139.263H204.179Z" fill="#595857"/>
<path d="M245.2 133.083H248.091V144.179H252.01V124.371H248.091V129.947H245.2V133.083Z" fill="#595857"/>
<path d="M237.099 141.288H233.181V151.734H252.019V148.578H237.099V141.288Z" fill="#595857"/>
<path d="M244.126 139.875L247.178 138.123L240.264 127.507H245.228V124.371H229.517V127.507H234.763L227.849 138.123L230.92 139.837L237.514 129.674L244.126 139.875Z" fill="#595857"/>
<path d="M270.971 140.591H278.836V124.314H274.918V130.013H263.012V124.314H259.093V140.591H267.024V146.789H257.727V149.925H280.268V146.789H270.971V140.591ZM263.012 137.454V133.149H274.918V137.454H263.012Z" fill="#595857"/>
<path d="M290.799 141.288H286.852V151.734H305.691V148.569H290.799V141.288Z" fill="#595857"/>
<path d="M294.02 139.47H297.929V133.168H301.772V144.151H305.691V124.371H301.772V130.032H297.929V124.371H283.16V127.507H294.02V139.47Z" fill="#595857"/>
<path d="M330.624 129.947H329.267V124.371H325.349V151.734H329.267V133.083H330.624V151.734H334.542V124.371H330.624V129.947Z" fill="#595857"/>
<path d="M315.911 139.263V127.507H323.682V124.371H311.992V142.399H323.691V139.263H315.911Z" fill="#595857"/>
<path d="M353.569 138.5C354.765 137.237 355.378 135.664 355.378 133.809C355.378 131.68 354.596 129.947 353.06 128.638H356.122V125.501H350.103V123.749H346.184V125.501H340.099V128.638H343.161C341.644 129.928 340.881 131.652 340.881 133.78C340.881 135.627 341.503 137.219 342.718 138.5C344.046 139.912 345.874 140.619 348.162 140.619C350.451 140.619 352.25 139.903 353.569 138.5ZM344.357 133.62C344.357 132.678 344.668 131.868 345.299 131.228C345.977 130.484 346.929 130.107 348.125 130.107C349.321 130.107 350.272 130.484 350.951 131.228C351.572 131.897 351.892 132.716 351.892 133.686C351.892 134.656 351.591 135.438 350.988 136.079C350.282 136.823 349.33 137.2 348.162 137.2C346.994 137.2 346.005 136.823 345.299 136.079C344.677 135.419 344.357 134.591 344.357 133.62Z" fill="#595857"/>
<path d="M362.602 124.342H358.684V140.336H362.602V133.102H365.259V129.956H362.602V124.342Z" fill="#595857"/>
<path d="M343.792 144.707H358.684V151.734H362.602V141.57H343.792V144.707Z" fill="#595857"/>
<path d="M383.579 146.789V135.702H379.661V146.789H377.4V135.702H373.453V146.789H369.459V149.925H392V146.789H383.579Z" fill="#595857"/>
<path d="M389.786 124.314H370.364V127.451H385.868V145.14H389.786V124.314Z" fill="#595857"/>
<path d="M146.118 148.767C148.727 159.203 156.404 167.634 166.379 171.298C176.344 167.643 184.012 159.213 186.63 148.785L166.379 140.572L146.118 148.767Z" fill="white"/>
<path d="M187.148 146.289C187.44 144.528 187.601 142.729 187.601 140.883V122.148H145.148V140.892C145.148 142.729 145.308 144.518 145.6 146.27L166.379 137.859L187.158 146.289H187.148Z" fill="white"/>
<path d="M143 120V140.609C143 155.473 152.372 168.736 166.322 173.86L166.379 173.879L166.435 173.86C180.385 168.745 189.758 155.473 189.758 140.609V120H143ZM145.148 122.148H187.61V140.892C187.61 142.738 187.45 144.537 187.158 146.299L166.379 137.868L145.59 146.271C145.298 144.519 145.138 142.729 145.138 140.892V122.148H145.148ZM166.379 171.298C156.404 167.634 148.727 159.203 146.118 148.767L166.379 140.572L186.63 148.785C184.012 159.213 176.344 167.634 166.379 171.298Z" fill="#172C51"/>
<path d="M168.498 125.086H165.437V127.338H168.498V125.086Z" fill="#172C51"/>
<path d="M168.498 128.807H165.437V135.768H168.498V128.807Z" fill="#172C51"/>
<path d="M157.176 128.892H152.25V125.086H149.188V135.777H152.25V131.152H157.176V135.777H160.228V125.086H157.176V128.892Z" fill="#172C51"/>
<path d="M173.302 125.086V127.338H176.919V135.777H179.98V127.338H183.654V125.086H173.302Z" fill="#172C51"/>
<path d="M163.139 167.229C162.997 167.229 162.762 167.219 162.517 167.219C162.253 167.219 162.018 167.219 161.876 167.229C161.829 167.219 161.801 167.181 161.801 167.134C161.801 167.087 161.801 167.021 161.839 166.993L162.027 166.974C162.178 166.965 162.206 166.955 162.206 166.626V165.26C162.206 164.977 162.187 164.959 162.055 164.94L161.876 164.911C161.82 164.883 161.81 164.827 161.81 164.798C161.81 164.78 161.81 164.714 161.848 164.685C162.008 164.657 162.187 164.61 162.376 164.563C162.47 164.535 162.564 164.497 162.63 164.469C162.696 164.44 162.724 164.431 162.743 164.431C162.781 164.431 162.828 164.459 162.847 164.516C162.847 164.629 162.837 164.817 162.837 165.024V166.635C162.837 166.965 162.865 166.965 163.016 166.984H163.176C163.242 167.031 163.252 167.097 163.242 167.144C163.242 167.191 163.214 167.219 163.176 167.229H163.139Z" fill="#172C51"/>
<path d="M164.024 167.464C164.024 167.464 163.968 167.417 163.958 167.37C163.958 167.323 163.958 167.276 163.996 167.247C164.712 167.059 165.154 166.418 165.154 165.608C165.154 165.26 165.051 164.732 164.778 164.732C164.617 164.732 164.533 164.958 164.533 165.175C164.533 165.486 164.646 165.834 164.9 165.882C164.947 165.882 164.966 165.882 165.004 165.882C165.07 165.919 165.079 165.985 165.07 166.023C164.985 166.136 164.806 166.192 164.627 166.192C164.222 166.192 163.911 165.844 163.911 165.401C163.911 164.855 164.307 164.44 164.834 164.44C165.418 164.44 165.823 164.902 165.823 165.561C165.823 166.051 165.625 166.513 165.258 166.871C164.928 167.191 164.391 167.455 164.033 167.464H164.015H164.024Z" fill="#172C51"/>
<path d="M166.869 167.473C166.784 167.473 166.661 167.417 166.652 167.304L167.707 165.364C167.782 165.213 167.829 165.119 167.829 165.053C167.829 165.034 167.782 165.034 167.763 165.034H166.925C166.708 165.034 166.69 165.053 166.605 165.213C166.577 165.241 166.548 165.26 166.511 165.26C166.464 165.26 166.398 165.232 166.379 165.185C166.435 164.987 166.482 164.78 166.511 164.629L166.539 164.497H166.577C166.708 164.506 166.803 164.516 167.048 164.516H167.811C168.093 164.516 168.338 164.516 168.376 164.506C168.451 164.525 168.47 164.582 168.46 164.629C168.357 164.789 168.244 165.006 168.065 165.335L166.906 167.492H166.887H166.859L166.869 167.473Z" fill="#172C51"/>
<path d="M169.412 167.473C169.327 167.473 169.205 167.417 169.195 167.304L170.241 165.364C170.316 165.213 170.363 165.119 170.363 165.053C170.363 165.034 170.316 165.034 170.297 165.034H169.459C169.242 165.034 169.223 165.053 169.139 165.213C169.11 165.241 169.082 165.26 169.044 165.26C168.997 165.26 168.931 165.232 168.913 165.185C168.969 164.987 169.016 164.78 169.044 164.629L169.073 164.497H169.11C169.242 164.506 169.336 164.516 169.581 164.516H170.344C170.627 164.516 170.872 164.516 170.909 164.506C170.985 164.525 171.004 164.582 170.994 164.629C170.891 164.789 170.778 165.006 170.599 165.335L169.44 167.492H169.421H169.393L169.412 167.473Z" fill="#172C51"/>
<path d="M166.379 163.197C165.484 163.197 164.655 162.792 164.128 162.114H156.215V152.403H157.167V161.163H164.627L164.768 161.379C165.117 161.916 165.71 162.246 166.379 162.246C167.048 162.246 167.641 161.926 167.989 161.379L168.131 161.163H175.591V152.403H176.542V162.114H168.63C168.093 162.792 167.274 163.197 166.379 163.197Z" fill="#172C51"/>
<path d="M173.001 151.008C172.52 151.008 172.059 150.877 171.701 150.641L174.065 149.944C174.14 149.925 174.187 149.85 174.178 149.765C174.159 149.69 174.093 149.633 174.018 149.633L169.864 149.897C169.864 149.897 169.845 149.869 169.845 149.859L173.198 147.382C173.264 147.335 173.283 147.25 173.236 147.175C173.198 147.109 173.114 147.081 173.038 147.109L169.148 148.804L171.494 145.272C171.541 145.206 171.522 145.121 171.465 145.065C171.399 145.018 171.315 145.018 171.258 145.065L168.187 147.985L169.186 143.859C169.205 143.784 169.158 143.708 169.082 143.68C169.007 143.652 168.922 143.68 168.894 143.756L167.01 147.552L166.539 143.332C166.539 143.256 166.464 143.19 166.388 143.19C166.313 143.19 166.238 143.247 166.238 143.332L165.767 147.552L163.883 143.756C163.845 143.68 163.76 143.652 163.694 143.68C163.619 143.708 163.581 143.784 163.6 143.859L164.599 147.985L161.528 145.065C161.471 145.008 161.377 145.008 161.321 145.065C161.264 145.112 161.245 145.206 161.292 145.272L163.638 148.804L159.748 147.109C159.672 147.081 159.587 147.109 159.55 147.175C159.512 147.241 159.531 147.335 159.597 147.382L162.95 149.859C162.95 149.859 162.941 149.888 162.931 149.897L158.777 149.633C158.702 149.633 158.627 149.68 158.617 149.765C158.608 149.84 158.655 149.916 158.73 149.944L161.095 150.641C160.737 150.877 160.275 151.008 159.795 151.008H158.109V160.324H159.795C160.398 160.324 160.982 160.155 161.443 159.853C162.084 159.429 162.912 159.194 163.779 159.194C165.126 159.194 165.785 159.75 166.435 160.211C167.076 159.703 167.707 159.194 169.082 159.194C169.92 159.194 170.74 159.429 171.39 159.853C171.851 160.155 172.445 160.324 173.038 160.324H174.724V150.999H173.038L173.001 151.008ZM166.379 148.202C167.603 148.202 168.668 148.88 169.223 149.878C168.084 149.831 167.076 150.18 166.379 150.726C165.682 150.18 164.683 149.831 163.534 149.878C164.09 148.88 165.154 148.202 166.379 148.202ZM174.046 159.684H173.001C172.52 159.684 172.059 159.552 171.701 159.316C170.947 158.827 170.005 158.553 169.044 158.553C168.027 158.553 167.085 158.855 166.379 159.411C165.682 158.864 164.721 158.553 163.732 158.553C162.752 158.553 161.801 158.827 161.057 159.316C160.699 159.552 160.237 159.684 159.757 159.684H158.711V151.649H159.757C160.36 151.649 160.944 151.479 161.405 151.178C162.093 150.726 162.95 150.519 163.741 150.519C165.088 150.519 165.738 151.065 166.379 151.536C167.019 151.056 167.66 150.519 169.026 150.519C169.807 150.519 170.665 150.726 171.352 151.178C171.814 151.479 172.407 151.649 173.001 151.649H174.046V159.684Z" fill="#172C51"/>
<path d="M164.749 154.541C164.608 154.541 164.344 154.541 164.118 154.541H163.751C163.628 154.541 163.487 154.541 163.317 154.541C163.299 154.522 163.289 154.494 163.289 154.475C163.289 154.447 163.289 154.428 163.308 154.418L163.421 154.399C163.534 154.381 163.553 154.371 163.553 154.098V153.024C163.553 152.76 163.534 152.732 163.421 152.723H163.346C163.346 152.723 163.317 152.676 163.317 152.647C163.317 152.619 163.327 152.6 163.346 152.591C163.496 152.591 163.628 152.591 163.76 152.591C163.892 152.591 164.033 152.591 164.165 152.591C164.184 152.6 164.193 152.629 164.193 152.657C164.193 152.685 164.193 152.704 164.175 152.713H164.099C163.977 152.742 163.967 152.76 163.967 153.034V154.051C163.967 154.202 163.977 154.277 164.014 154.324C164.052 154.371 164.099 154.39 164.288 154.39C164.542 154.39 164.608 154.381 164.768 154.051C164.777 154.032 164.796 154.032 164.815 154.032C164.843 154.032 164.872 154.051 164.89 154.07C164.881 154.22 164.815 154.465 164.768 154.55L164.749 154.541Z" fill="#172C51"/>
<path d="M166.181 154.578C165.936 154.578 165.767 154.531 165.625 154.418C165.484 154.296 165.418 154.089 165.418 153.759V153.034C165.418 152.77 165.399 152.751 165.286 152.732L165.22 152.713C165.22 152.713 165.192 152.666 165.201 152.647C165.201 152.629 165.211 152.6 165.23 152.6C165.371 152.6 165.503 152.6 165.635 152.6C165.767 152.6 165.908 152.6 166.04 152.6C166.059 152.61 166.068 152.638 166.068 152.657C166.068 152.676 166.068 152.704 166.049 152.713H165.983C165.87 152.751 165.851 152.77 165.851 153.034V153.702C165.851 154.041 165.88 154.409 166.294 154.409C166.595 154.409 166.746 154.173 166.746 153.693V153.344C166.746 153.071 166.737 152.883 166.708 152.817C166.69 152.76 166.624 152.742 166.558 152.732L166.482 152.713C166.482 152.713 166.454 152.619 166.482 152.6C166.643 152.6 166.746 152.6 166.859 152.6C166.963 152.6 167.066 152.6 167.17 152.6C167.198 152.619 167.198 152.685 167.17 152.713H167.114C167.048 152.742 166.991 152.76 166.972 152.817C166.944 152.883 166.935 153.071 166.935 153.344V153.665C166.935 153.919 166.916 154.183 166.756 154.371C166.633 154.503 166.435 154.578 166.209 154.578H166.181Z" fill="#172C51"/>
<path d="M169.478 154.541C169.355 154.541 169.27 154.541 169.054 154.541C168.865 154.541 168.743 154.541 168.592 154.541C168.573 154.541 168.564 154.503 168.564 154.475C168.564 154.447 168.564 154.428 168.583 154.428H168.658C168.752 154.409 168.752 154.39 168.752 154.39C168.752 154.371 168.743 154.343 168.677 154.221C168.639 154.145 168.442 153.816 168.394 153.768C168.338 153.881 168.197 154.108 168.093 154.324C168.074 154.371 168.065 154.381 168.065 154.4C168.065 154.4 168.084 154.418 168.14 154.428H168.215C168.215 154.428 168.244 154.484 168.244 154.513C168.244 154.531 168.225 154.55 168.215 154.56C168.093 154.56 167.952 154.56 167.839 154.56C167.745 154.56 167.631 154.56 167.547 154.56C167.518 154.55 167.509 154.522 167.509 154.503C167.509 154.484 167.509 154.465 167.528 154.456H167.594C167.754 154.418 167.82 154.334 167.905 154.202C167.98 154.089 168.131 153.881 168.244 153.693C168.272 153.655 168.281 153.627 168.281 153.608C168.281 153.608 168.281 153.58 168.244 153.524C168.215 153.467 168.168 153.401 168.121 153.326C168.037 153.184 167.933 153.024 167.848 152.902C167.782 152.808 167.726 152.77 167.613 152.751H167.566C167.566 152.751 167.537 152.704 167.537 152.676C167.537 152.657 167.547 152.638 167.566 152.629C167.66 152.629 167.829 152.629 167.999 152.629C168.225 152.629 168.329 152.629 168.413 152.629C168.432 152.629 168.442 152.648 168.442 152.666C168.442 152.695 168.442 152.723 168.432 152.742L168.366 152.761C168.3 152.77 168.281 152.789 168.281 152.798C168.281 152.817 168.281 152.845 168.319 152.902C168.394 153.034 168.479 153.175 168.564 153.297L168.639 153.147C168.705 153.053 168.762 152.958 168.818 152.864C168.847 152.817 168.847 152.798 168.847 152.779C168.847 152.779 168.828 152.77 168.799 152.761L168.715 152.742C168.715 152.742 168.686 152.695 168.696 152.666C168.696 152.638 168.705 152.629 168.724 152.619C168.818 152.619 168.913 152.619 169.044 152.619C169.176 152.619 169.28 152.619 169.365 152.619C169.383 152.619 169.393 152.638 169.393 152.657C169.393 152.685 169.393 152.713 169.383 152.732L169.289 152.751C169.233 152.751 169.186 152.77 169.139 152.817C168.997 152.968 168.837 153.184 168.734 153.345C168.686 153.41 168.677 153.429 168.677 153.439C168.677 153.448 168.677 153.476 168.715 153.524C168.922 153.863 169.054 154.079 169.157 154.23C169.252 154.381 169.318 154.418 169.421 154.437H169.506C169.506 154.437 169.525 154.484 169.525 154.513C169.525 154.531 169.515 154.56 169.497 154.569L169.478 154.541Z" fill="#172C51"/>
<path d="M161.801 157.47C161.801 157.47 161.744 157.47 161.726 157.451C161.65 157.197 161.471 156.792 161.311 156.425C161.245 156.264 161.179 156.123 161.132 156.01C161.132 156.198 161.132 156.312 161.132 156.462C161.132 156.651 161.132 156.943 161.132 157.112C161.132 157.253 161.142 157.291 161.255 157.31L161.358 157.329C161.358 157.329 161.377 157.366 161.377 157.395C161.377 157.423 161.368 157.442 161.358 157.451C161.255 157.451 161.132 157.451 161.029 157.451C160.944 157.451 160.831 157.451 160.718 157.451C160.699 157.451 160.68 157.423 160.68 157.395C160.68 157.366 160.68 157.338 160.699 157.329H160.755C160.887 157.291 160.897 157.282 160.916 157.103C160.925 156.98 160.944 156.782 160.953 156.556V156.434C160.972 156.236 160.981 156.001 160.981 155.85C160.981 155.699 160.925 155.652 160.821 155.633H160.765C160.765 155.633 160.737 155.558 160.746 155.539C160.746 155.52 160.765 155.511 160.774 155.501C160.868 155.501 160.991 155.501 161.123 155.501C161.208 155.501 161.292 155.501 161.387 155.501C161.387 155.662 161.462 155.803 161.556 156.01L161.792 156.538C161.82 156.594 161.905 156.764 161.942 156.83C161.961 156.764 162.008 156.669 162.084 156.5L162.225 156.18C162.357 155.878 162.413 155.746 162.479 155.501C162.573 155.501 162.781 155.501 162.781 155.501C162.875 155.501 162.997 155.501 163.101 155.501C163.12 155.501 163.129 155.52 163.129 155.539C163.129 155.567 163.129 155.596 163.11 155.614L163.025 155.633C162.912 155.652 162.865 155.69 162.865 155.831C162.865 156.425 162.865 156.735 162.884 157.103C162.884 157.244 162.903 157.301 162.997 157.31H163.082C163.082 157.31 163.11 157.376 163.101 157.404C163.101 157.423 163.091 157.432 163.073 157.442C162.941 157.442 162.828 157.442 162.686 157.442C162.564 157.442 162.413 157.442 162.281 157.442C162.263 157.442 162.253 157.414 162.244 157.385C162.244 157.357 162.244 157.329 162.263 157.319H162.347C162.47 157.291 162.47 157.263 162.47 157.084V156.33V156.001L162.385 156.217C162.206 156.613 162.027 157.027 161.876 157.442C161.857 157.461 161.829 157.47 161.81 157.47H161.801Z" fill="#172C51"/>
<path d="M164.58 157.47C164.325 157.47 164.165 157.423 164.024 157.31C163.883 157.188 163.817 156.98 163.817 156.651V155.925C163.817 155.662 163.798 155.643 163.685 155.624L163.619 155.605C163.619 155.605 163.591 155.567 163.6 155.539C163.6 155.52 163.609 155.501 163.628 155.492C163.77 155.492 163.901 155.492 164.033 155.492C164.165 155.492 164.307 155.492 164.438 155.492C164.457 155.501 164.467 155.52 164.467 155.549C164.467 155.577 164.467 155.596 164.448 155.605H164.382C164.269 155.643 164.25 155.652 164.25 155.925V156.594C164.25 156.933 164.288 157.301 164.693 157.301C164.994 157.301 165.145 157.056 165.145 156.585V156.236C165.145 155.963 165.126 155.775 165.107 155.709C165.088 155.652 165.022 155.633 164.956 155.624L164.881 155.605C164.881 155.605 164.853 155.511 164.881 155.492C165.032 155.492 165.145 155.492 165.258 155.492C165.361 155.492 165.456 155.492 165.559 155.492C165.588 155.511 165.597 155.577 165.559 155.605H165.503C165.437 155.633 165.38 155.652 165.361 155.709C165.333 155.775 165.324 155.963 165.324 156.236V156.556C165.324 156.811 165.305 157.075 165.145 157.263C165.022 157.395 164.825 157.47 164.599 157.47H164.58Z" fill="#172C51"/>
<path d="M167.584 157.47C167.584 157.47 167.584 157.47 167.556 157.432C167.519 157.376 167.453 157.272 167.358 157.15L166.652 156.227C166.539 156.076 166.464 155.991 166.426 155.954C166.426 155.982 166.426 156.029 166.426 156.133V156.698C166.426 156.971 166.435 157.159 166.464 157.225C166.482 157.282 166.548 157.301 166.614 157.31H166.69C166.69 157.31 166.718 157.414 166.69 157.442C166.53 157.442 166.426 157.442 166.313 157.442C166.209 157.442 166.106 157.442 166.002 157.442C165.974 157.423 165.964 157.357 166.002 157.329H166.049C166.124 157.301 166.172 157.282 166.19 157.225C166.219 157.159 166.228 156.98 166.228 156.698V155.963C166.228 155.803 166.228 155.756 166.209 155.718C166.19 155.68 166.162 155.643 166.059 155.624H165.983C165.983 155.624 165.964 155.549 165.964 155.52C165.964 155.501 165.974 155.492 165.993 155.492C166.124 155.492 166.266 155.492 166.369 155.492C166.464 155.492 166.539 155.492 166.595 155.492C166.633 155.624 166.803 155.831 167.038 156.123L167.34 156.491C167.434 156.613 167.509 156.698 167.556 156.754C167.556 156.726 167.556 156.679 167.556 156.632V156.236C167.556 155.963 167.537 155.775 167.519 155.709C167.49 155.652 167.434 155.633 167.368 155.624H167.292C167.292 155.624 167.264 155.52 167.292 155.492C167.443 155.492 167.556 155.492 167.669 155.492C167.773 155.492 167.867 155.492 167.98 155.492C168.008 155.511 168.018 155.577 167.98 155.605H167.924C167.839 155.633 167.801 155.652 167.782 155.709C167.754 155.775 167.745 155.963 167.745 156.236V156.933C167.745 157.122 167.745 157.301 167.745 157.395C167.726 157.442 167.641 157.47 167.575 157.47H167.584Z" fill="#172C51"/>
<path d="M169.27 157.442C169.204 157.442 169.129 157.442 169.063 157.432C169.007 157.432 168.95 157.432 168.903 157.432C168.771 157.432 168.63 157.432 168.47 157.432C168.451 157.414 168.442 157.385 168.442 157.367C168.442 157.357 168.442 157.329 168.46 157.319L168.545 157.301C168.668 157.282 168.677 157.263 168.677 156.999V155.972C168.677 155.69 168.677 155.652 168.555 155.633H168.507C168.507 155.633 168.479 155.577 168.479 155.549C168.479 155.53 168.498 155.511 168.507 155.511C168.724 155.502 168.95 155.483 169.242 155.483C169.506 155.483 169.713 155.511 169.883 155.577C170.222 155.709 170.448 156.038 170.448 156.425C170.448 156.811 170.269 157.131 169.949 157.301C169.77 157.395 169.553 157.442 169.252 157.442H169.27ZM169.261 155.633C169.176 155.633 169.139 155.652 169.129 155.671C169.11 155.69 169.11 155.756 169.11 155.831V156.886C169.11 157.037 169.11 157.14 169.167 157.206C169.214 157.263 169.289 157.291 169.383 157.291C169.845 157.291 170.015 156.858 170.015 156.462C170.015 155.935 169.751 155.643 169.261 155.643V155.633Z" fill="#172C51"/>
<path d="M171.88 157.432C171.729 157.432 171.597 157.432 171.465 157.432C171.333 157.432 171.192 157.432 171.051 157.432C171.032 157.423 171.022 157.395 171.022 157.376C171.022 157.348 171.022 157.329 171.041 157.319L171.126 157.301C171.249 157.282 171.258 157.263 171.258 156.999V155.935C171.258 155.662 171.239 155.652 171.126 155.624L171.051 155.605C171.051 155.605 171.022 155.567 171.022 155.549C171.022 155.52 171.022 155.501 171.041 155.492C171.192 155.492 171.333 155.492 171.465 155.492C171.597 155.492 171.729 155.492 171.88 155.492C171.898 155.501 171.908 155.53 171.908 155.549C171.908 155.577 171.908 155.596 171.889 155.605L171.804 155.624C171.682 155.643 171.672 155.662 171.672 155.935V156.999C171.672 157.272 171.691 157.282 171.804 157.301L171.88 157.319C171.88 157.319 171.898 157.367 171.898 157.376C171.898 157.395 171.898 157.423 171.88 157.442V157.432Z" fill="#172C51"/>
<path d="M202.097 158.902H203.839C205.902 158.902 207.08 160.107 207.08 162.415C207.08 164.723 205.902 165.985 203.886 165.985H202.087V158.902H202.097ZM203.764 165.071C205.205 165.071 205.987 164.177 205.987 162.415C205.987 160.654 205.215 159.806 203.764 159.806H203.152V165.071H203.764Z" fill="#595857"/>
<path d="M213.871 163.96H211.535L210.96 165.985H209.877L212.11 158.902H213.334L215.566 165.985H214.446L213.88 163.96H213.871ZM213.617 163.084L213.353 162.133C213.127 161.36 212.92 160.569 212.712 159.778H212.675C212.486 160.588 212.27 161.37 212.053 162.133L211.78 163.084H213.617Z" fill="#595857"/>
<path d="M218.826 158.902H222.801V159.834H219.89V161.812H222.358V162.754H219.89V165.043H222.904V165.985H218.826V158.902Z" fill="#595857"/>
<path d="M226.078 164.94L226.823 164.374C227.105 164.921 227.472 165.147 227.906 165.147C228.584 165.147 228.923 164.761 228.923 163.725V158.911H229.978V163.828C229.978 165.1 229.394 166.117 228.019 166.117C227.115 166.117 226.493 165.721 226.069 164.94H226.078Z" fill="#595857"/>
<path d="M234.094 158.902H238.069V159.834H235.159V161.812H237.626V162.754H235.159V165.043H238.173V165.985H234.094V158.902Z" fill="#595857"/>
<path d="M241.592 162.415C241.592 160.136 242.788 158.77 244.512 158.77C246.236 158.77 247.441 160.136 247.441 162.415C247.441 164.695 246.236 166.117 244.512 166.117C242.788 166.117 241.592 164.704 241.592 162.415ZM246.368 162.415C246.368 160.748 245.633 159.74 244.521 159.74C243.41 159.74 242.685 160.748 242.685 162.415C242.685 164.082 243.41 165.137 244.521 165.137C245.633 165.137 246.368 164.082 246.368 162.415Z" fill="#595857"/>
<path d="M251.237 158.902H252.321L254.553 163.065L255.259 164.563H255.307C255.25 163.828 255.165 162.971 255.165 162.208V158.902H256.173V165.985H255.09L252.858 161.803L252.151 160.324H252.104C252.161 161.059 252.245 161.878 252.245 162.641V165.985H251.237V158.902Z" fill="#595857"/>
<path d="M264.764 158.902H265.819V161.793H268.701V158.902H269.765V165.985H268.701V162.764H265.819V165.985H264.764V158.902Z" fill="#595857"/>
<path d="M273.9 158.902H277.875V159.834H274.965V161.812H277.433V162.754H274.965V165.043H277.979V165.985H273.9V158.902Z" fill="#595857"/>
<path d="M284.874 163.96H282.538L281.963 165.985H280.88L283.113 158.902H284.337L286.569 165.985H285.448L284.883 163.96H284.874ZM284.62 163.084L284.356 162.133C284.13 161.36 283.923 160.569 283.715 159.778H283.678C283.489 160.588 283.273 161.37 283.056 162.133L282.783 163.084H284.62Z" fill="#595857"/>
<path d="M289.828 158.902H290.883V165.043H293.728V165.985H289.828V158.902Z" fill="#595857"/>
<path d="M297.439 159.834H295.461V158.902H300.482V159.834H298.494V165.985H297.439V159.834Z" fill="#595857"/>
<path d="M304.023 158.902H305.078V161.793H307.961V158.902H309.025V165.985H307.961V162.764H305.078V165.985H304.023V158.902Z" fill="#595857"/>
<path d="M317.568 162.943V158.902H318.623V163.027C318.623 164.629 319.226 165.147 320.064 165.147C320.903 165.147 321.534 164.629 321.534 163.027V158.902H322.561V162.943C322.561 165.25 321.553 166.108 320.064 166.108C318.576 166.108 317.559 165.25 317.559 162.943H317.568Z" fill="#595857"/>
<path d="M326.686 158.902H327.77L330.002 163.065L330.708 164.563H330.755C330.699 163.828 330.614 162.971 330.614 162.208V158.902H331.622V165.985H330.539L328.306 161.803L327.6 160.324H327.553C327.609 161.059 327.694 161.878 327.694 162.641V165.985H326.686V158.902Z" fill="#595857"/>
<path d="M335.776 158.902H336.831V165.985H335.776V158.902Z" fill="#595857"/>
<path d="M340.071 158.902H341.192L342.191 162.575C342.417 163.385 342.567 164.073 342.803 164.892H342.85C343.076 164.073 343.245 163.376 343.462 162.575L344.461 158.902H345.544L343.443 165.985H342.191L340.081 158.902H340.071Z" fill="#595857"/>
<path d="M348.784 158.902H352.759V159.834H349.848V161.812H352.316V162.754H349.848V165.043H352.863V165.985H348.784V158.902Z" fill="#595857"/>
<path d="M360.323 165.985L358.797 163.122H357.714V165.985H356.659V158.902H358.863C360.247 158.902 361.293 159.42 361.293 160.955C361.293 162.057 360.737 162.707 359.889 162.99L361.538 165.994H360.342L360.323 165.985ZM357.714 162.227H358.731C359.71 162.227 360.238 161.803 360.238 160.946C360.238 160.089 359.71 159.787 358.731 159.787H357.714V162.227Z" fill="#595857"/>
<path d="M364.401 165.071L365.023 164.299C365.503 164.808 366.163 165.137 366.813 165.137C367.623 165.137 368.084 164.732 368.084 164.139C368.084 163.498 367.632 163.291 367.001 162.999L366.069 162.575C365.419 162.283 364.703 161.746 364.703 160.72C364.703 159.599 365.635 158.76 366.916 158.76C367.698 158.76 368.442 159.109 368.951 159.655L368.395 160.371C367.971 159.976 367.51 159.74 366.916 159.74C366.229 159.74 365.786 160.089 365.786 160.654C365.786 161.257 366.323 161.492 366.869 161.718L367.792 162.133C368.584 162.491 369.168 163.009 369.168 164.045C369.168 165.184 368.273 166.108 366.803 166.108C365.88 166.108 365.023 165.721 364.411 165.071H364.401Z" fill="#595857"/>
<path d="M372.813 158.902H373.868V165.985H372.813V158.902Z" fill="#595857"/>
<path d="M379.387 159.834H377.409V158.902H382.43V159.834H380.442V165.985H379.387V159.834Z" fill="#595857"/>
<path d="M386.923 163.301L384.907 158.902H386.038L386.81 160.776C387.017 161.304 387.215 161.793 387.441 162.34H387.479C387.695 161.803 387.921 161.313 388.119 160.776L388.901 158.902H390.003L387.978 163.301V165.985H386.923V163.301Z" fill="#595857"/>
</g>
<defs>
<clipPath id="clip0_315_14">
<rect width="249" height="53.8691" fill="white" transform="translate(143 120)"/>
</clipPath>
</defs>
</svg>
